<svg width="156" height="36" viewBox="0 0 156 36" fill="none" xmlns="http://www.w3.org/2000/svg">
<path id="Vector" fill-rule="evenodd" clip-rule="evenodd" d="M31.1539 30.2603C31.1539 32.685 29.1235 34.6538 27.5946 34.6538H10.3115L32.0503 0.000871424H2.98311V5.74061H4.4771C4.4771 3.3141 6.05059 1.34797 7.5804 1.34797H22.515L0.648651 36H32.1796L32.1814 30.2594H31.1539V30.2603ZM56.4897 34.877C58.5987 34.877 60.6484 34.0051 60.1871 33.1977L56.1463 25.1954H41.9255L38.2193 33.2178C37.8288 34.1202 39.4556 34.8761 40.981 34.8761V36H32.7781L32.7772 34.8761C34.8854 34.8761 36.368 33.9528 36.6389 33.2256L52.0514 0L68.8705 33.1968C69.4078 34.0687 70.9848 34.8761 73.5691 34.8761L73.5657 36H56.4897V34.877ZM42.5432 23.8997L48.6956 10.4245L55.5644 23.8997H42.5432ZM75.5297 1.39156C78.0328 1.39156 80.0955 2.03503 80.0955 2.81276C80.0955 8.98758 80.0815 33.1663 80.0955 33.1663C80.0955 33.992 78.0564 34.9119 75.555 34.9119L75.5515 36H92.2702V34.9868C89.7855 34.9868 87.7742 33.9955 87.7742 33.1716V1.08378H92.5934C97.2379 1.08378 100.997 4.93235 100.997 9.30059C100.997 13.6697 97.2344 17.2105 92.59 17.2105H89.2543C89.2543 17.2105 100.556 34.285 100.571 34.285C101.018 34.9302 101.238 36 101.238 36H113.422V34.9868C111.077 34.9868 109.85 34.0147 109.171 33.1681L98.2898 19.0031C103.512 18.6587 107.557 14.4431 107.557 9.44358C107.557 4.21914 103.059 0.000871424 97.5061 0.000871424H75.5297V1.39156ZM138.268 34.9127C140.381 34.9127 142.429 34.0051 141.967 33.1977L137.925 25.1954H123.706L120 33.2178C119.611 34.1202 121.237 34.9868 122.762 34.9868V36H114.558V34.9119C116.667 34.9119 118.149 33.9528 118.419 33.2256L133.834 0L150.654 33.1968C151.189 34.0687 152.766 34.9494 155.351 34.9494L155.348 36H138.268V34.9127ZM124.324 23.8997L130.475 10.4245L137.347 23.8997H124.324Z" fill="#3C3A36"/>
</svg>
